<svg version="1.2" xmlns="http://www.w3.org/2000/svg" viewBox="0 0 1000 1000" width="1000" height="1000">
	<title>New Project</title>
	<style>
		.s0 { fill: #7ec242 } 
		.s1 { fill: #ffffff } 
	</style>
	<path id="Layer 3" class="s0" d="m656.4 823.1l216.5-419.9-37.6-176.7-177.3 345-170.8-329.3-23.9 203.8z"/>
	<path id="Layer 7" class="s0" d="m885.7 381.4c0 0 61.5-117.1 94.2-187.5 13.4-29 0.1-51-2.8-56.5-10.1-19.4-31.9-29.2-31.9-29.2l-23.9 5.7c0 0 20.8 5 32.4 17.1 12.3 12.9 17.4 33.9 15 49.1-2.4 15.7-11.1 39-26.2 49.7-16.7 11.8-39.7 10.1-40.9 10-1.3-0.1-20.7-4.9-32.2-20-9.8-12.9-12.3-35-10-50 2.3-15.5 14.7-34.1 29.3-44.4 13.7-9.6 36.3-11.9 30.3-11.4-2.6 0.2 28.8-4.1 23.9-7-2.5-1.5-6-3-5.9-3 0.8 0.1-7.6-4.6-20.7-3.9-13.7 0.7-32.5 7-45.1 18.4-7.1 6.4-15.3 16.6-19.3 26.4-8.8 22-6.7 48.1-7.9 47.1-3.2-2.4 41.7 189.4 41.7 189.4z"/>
	<path id="Shape 1" class="s1" d="m398.6 829.3h127.4l-141.4-243.8c0 0 60.1-25.4 99.8-81.9 31.2-44.3 47.3-104.1 43.1-154.1-4.3-52-45.2-128.1-92.2-163.1-43.9-32.7-95-40.7-106.6-40.5-42.4 1.1-313.7-1.5-313.7-1.5v111.9l302.2 0.4c0 0 44.8 12.6 68 38.1 11.6 12.9 20.6 28.8 24.6 45.3 4.3 18.2 6.8 37.5 3.8 53.8-11.5 64.3-77.6 88.3-87.2 90.5-17.9 4.2-126.2 2.9-126.2 2.9z"/>
</svg>